<?xml version="1.0" encoding="UTF-8" standalone="no"?>
<!DOCTYPE svg PUBLIC "-//W3C//DTD SVG 1.1//EN" "http://www.w3.org/Graphics/SVG/1.1/DTD/svg11.dtd">
<svg fill="#0b0b1d" width="100%" height="100%" viewBox="0 0 478 560" version="1.1" xmlns="http://www.w3.org/2000/svg" xmlns:xlink="http://www.w3.org/1999/xlink" xml:space="preserve" xmlns:serif="http://www.serif.com/" style="fill-rule:evenodd;clip-rule:evenodd;stroke-linecap:round;stroke-linejoin:round;stroke-miterlimit:1.5;">
    <g transform="matrix(1.00357,0,0,1.00357,216.744,406.962)">
        <g transform="matrix(1,0,0,1,-266.665,-420)">
            <g transform="matrix(1,0,0,1,1.90779,5.2024)">
                <path d="M100.851,567.545C100.099,562.436 99.266,558.019 98.409,554.664C97.567,551.364 96.446,543.564 95.917,537.331C95.388,531.098 93.742,515.798 92.259,503.331C90.775,490.864 89.14,471.872 88.624,461.125L87.514,441.444L85.892,441.067L82.881,440.367C79.249,439.93 76.963,441.204 73.871,443.543C69.835,446.596 65.905,446.766 64.659,445.441C64.234,444.99 61.582,439.883 57.915,435.693C54.248,431.503 49.797,427.924 49.797,426.561C49.797,425.198 51.201,421.154 52.736,417.61C55.75,410.647 63.803,387.589 63.216,387.365C60.615,386.377 58.322,384.294 58.389,383.282C58.435,382.575 57.545,380.971 56.41,379.717C54.528,377.638 54.936,376.173 61.05,363.05C72.479,338.52 79.284,323.892 82.937,310.124C84.871,302.835 88.293,295.236 89.763,292.007C91.261,288.716 92.93,284.706 93.302,283.467C93.643,282.336 95.291,279.323 96.406,276.213C98.025,271.698 100.722,266.682 101.632,251.836C102.267,241.466 103.48,228.753 104.097,222.912C104.683,217.367 105.847,203.432 105.863,203.287C106.79,194.583 108.798,180.43 112.13,173.669C114.605,168.646 121.622,163.504 133.33,159.123C139.693,156.742 150.587,147.029 155.864,138.421C158.406,134.273 158.841,132.021 158.139,125.604C157.3,117.937 152.182,108.324 146.648,103.316C145.19,101.996 144.407,100.03 143.997,99.149C143.576,98.246 143.063,91.313 141.986,90.078C140.744,88.653 141.034,88.619 140.919,87.638C140.8,86.625 140.467,86.234 139.664,85.233C138.956,84.35 138.986,84.278 138.884,82.971C138.687,80.449 138.829,81.972 138.478,79.54C138.266,78.074 137.682,77.992 137.204,76.552C136.423,74.205 137.446,74.117 137.056,73.177C136.337,71.45 138.429,68.732 138.253,68.277C137.367,65.983 141.417,63.566 141.391,60.714C141.364,57.81 144.616,54.952 144.912,54.677C146.624,53.081 143.966,47.633 156.748,43.761C177.295,37.536 178.143,38.281 181.792,40.276C185.232,42.156 195.442,42.281 205.084,42.588C208.915,42.71 210.835,46.072 211.274,46.511C211.712,46.95 215.222,48.227 214.513,50.794C213.674,53.834 214.073,56.205 214.93,57.061C215.794,57.926 215.729,59.339 214.741,61.186C213.083,64.283 214.123,67.736 214.982,74.692C215.049,75.239 215.543,77.271 215.342,82.168C215.291,83.409 213.935,86.46 214.59,91.907C214.643,92.348 215.827,93.974 215.779,94.662C215.731,95.325 216.227,96.3 215.155,97.891C214.951,98.194 214.714,98.644 214.506,98.948C213.975,99.727 212.652,105.293 211.204,111.09C209.866,116.448 208.84,121.209 208.978,123.329C209.076,124.84 210.049,127.219 211.881,128.795L216.011,131.21C216.011,131.21 229.214,125.246 234.389,122.907C244.792,118.205 255.265,116.973 258.946,117.96C263.434,119.163 262.566,119.453 269.606,116.644C285.228,110.409 303.95,102.13 311.252,98.09C322.2,92.032 332.18,87.925 353.919,78.501C377.247,68.387 401.794,61.073 419.309,52.284L433.878,45.76L440.498,48.912L456.273,39.017C463.664,34.044 471.923,29.904 475.59,28.578C479.256,27.251 487.482,24.711 492.615,22.841C497.748,20.97 503.199,19.228 508.987,16.28C518.74,11.312 521.537,9.694 523.102,11.834C527.585,17.966 520.844,26.039 504.594,34.095C495.677,38.515 494.035,39.344 494.793,43.186C496.427,51.47 497.341,67.595 496.313,70.443C495.196,73.538 486.362,78.321 481.465,78.321C479.898,78.321 478.635,77.599 477.714,76.123L476.87,74.44L471.867,78.224C468.975,79.7 464.247,80.372 461.468,80.399C456.934,80.442 454.923,84.104 450.159,88.583C445.639,92.831 444.854,91.441 434.164,96.989C426.961,100.727 410.089,109.37 396.522,116.059C382.955,122.748 367.596,129.192 362.83,131.239C345.762,138.568 328.675,146.273 289.541,168.197L266.201,181.654L260.357,200.651C253.768,221.327 243.646,257.499 235.509,277.33C232.951,283.563 229.9,294.305 228.727,301.201C226.678,313.251 225.247,315.101 228.396,346.622C230.199,364.66 231.155,387.099 231.646,397.861C232.419,414.829 231.975,416.337 231.764,420.316C231.541,424.518 230.641,426.723 234.67,442.679C236.982,451.837 240.354,466.53 242.162,475.33C246.36,495.76 257.332,559.403 257.332,563.324C257.332,564.411 257.861,566.04 258.669,567.545L195.513,567.545L195.433,567.332C191.477,556.332 183.545,536.606 177.806,523.497C165.703,495.851 167.216,494.963 162.543,532.464C159.689,555.371 159.862,556.163 161.219,560.422C162.016,562.924 162,564.747 161.777,567.418L100.851,567.545Z"/>
            </g>
        </g>
    </g>
    <g transform="matrix(1.40684,0,0,1.40684,-284.207,-173.511)">
        <path d="M267.654,522.23L266.746,360.003L238.094,359.906L237.541,348.467L251.074,348.458L288.021,329.66L447.977,329.736L447.794,338.43L403.22,354.557L401.137,522.208L267.654,522.23Z" style="stroke:white;stroke-width:1.42px;"/>
    </g>
</svg>
